<svg width="423" height="464" viewBox="0 0 423 464" fill="none" xmlns="http://www.w3.org/2000/svg">
    <path d="M397.933 245.165L313.681 267.729L281.205 248.995V213.839L313.31 195.403L397.931 218.077C399.632 218.531 401.341 218.755 403.035 218.755C411.727 218.755 419.681 212.95 422.03 204.157C424.845 193.649 418.615 182.85 408.108 180.038L361.717 167.608L404.483 143.055C413.909 137.641 417.171 125.606 411.756 116.176C406.323 106.746 394.312 103.479 384.882 108.906L342.028 133.517L354.455 87.11C357.267 76.605 351.046 65.804 340.534 62.992C330.092 60.253 319.249 66.414 316.433 76.912L293.853 161.168L261.547 179.721L230.922 162.014V124.86L292.853 62.93C300.541 55.238 300.541 42.779 292.853 35.086C285.163 27.395 272.707 27.395 265.011 35.086L230.922 69.174V19.688C230.923 8.816 222.105 0 211.232 0C200.361 0 191.544 8.815 191.544 19.688V68.93L157.703 35.086C150.012 27.395 137.553 27.395 129.86 35.086C122.169 42.778 122.169 55.237 129.86 62.93L191.544 124.613V162.157L161.151 179.691L128.845 161.155L106.281 76.913C103.47 66.415 92.6776 60.237 82.1806 62.993C71.6746 65.805 65.4396 76.606 68.2546 87.111L80.6806 133.51L37.8286 108.906C28.3816 103.478 16.3566 106.738 10.9506 116.181C5.53961 125.613 8.80261 137.64 18.2316 143.054L60.9936 167.607L14.6016 180.037C4.09461 182.849 -2.13839 193.648 0.675614 204.156C3.03061 212.949 10.9826 218.754 19.6756 218.754C21.3686 218.754 23.0786 218.53 24.7846 218.076L109.417 195.394L141.486 213.806L141.519 248.994L109.033 267.762L24.7846 245.164C14.3516 242.426 3.49361 248.594 0.675614 259.088C-2.13839 269.592 4.09461 280.394 14.6016 283.191L60.8236 295.588L18.1826 320.204C8.76961 325.645 5.53961 337.676 10.9836 347.09C14.6306 353.426 21.2466 356.934 28.0436 356.934C31.3806 356.934 34.7676 356.104 37.8706 354.288L80.7276 329.556L68.2546 376.133C65.4396 386.655 71.6746 397.423 82.1806 400.252C83.8816 400.713 85.5906 400.931 87.2846 400.931C95.9736 400.931 103.926 395.117 106.281 386.318L128.957 301.713L161.209 283.104L191.544 300.608V338.633L129.86 400.318C122.169 408.008 122.169 420.465 129.86 428.16C133.706 432.006 138.735 433.912 143.781 433.912C148.81 433.912 153.857 432.006 157.703 428.16L191.544 394.318V443.543C191.544 454.435 200.361 463.232 211.232 463.232C222.105 463.232 230.923 454.433 230.923 443.543V394.072L265.012 428.16C268.857 432.006 273.886 433.912 278.933 433.912C283.98 433.912 289.009 432.006 292.854 428.16C300.542 420.467 300.542 408.01 292.854 400.318L230.923 338.387V300.76L261.518 283.102L293.761 301.711L316.437 386.316C318.789 395.115 326.741 400.929 335.429 400.929C337.117 400.929 338.831 400.711 340.536 400.25C351.048 397.421 357.268 386.653 354.457 376.131L341.97 329.554L384.843 354.286C387.947 356.1 391.333 356.932 394.671 356.932C401.468 356.932 408.082 353.424 411.73 347.088C417.173 337.674 413.945 325.645 404.531 320.202L361.89 295.59L408.111 283.192C418.618 280.395 424.848 269.592 422.033 259.09C419.235 248.594 408.422 242.413 397.933 245.165ZM241.827 248.995L211.355 266.594L180.905 248.994L180.871 213.775L211.355 196.188L241.827 213.801V248.995Z" fill="#BAD0DB"/>
    </svg>
